<?xml version="1.0" encoding="UTF-8" standalone="no"?>
<!-- Created with Inkscape (http://www.inkscape.org/) -->

<svg
   width="85.324249mm"
   height="53.655331mm"
   viewBox="0 0 85.324249 53.655331"
   version="1.1"
   id="svg1"
   sodipodi:docname="g43.svg"
   inkscape:version="1.3.2 (091e20e, 2023-11-25, custom)"
   xmlns:inkscape="http://www.inkscape.org/namespaces/inkscape"
   xmlns:sodipodi="http://sodipodi.sourceforge.net/DTD/sodipodi-0.dtd"
   xmlns="http://www.w3.org/2000/svg"
   xmlns:svg="http://www.w3.org/2000/svg"
   xmlns:ns1="http://www.iki.fi/pav/software/textext/">
  <sodipodi:namedview
     id="namedview1"
     pagecolor="#ffffff"
     bordercolor="#000000"
     borderopacity="0.25"
     inkscape:showpageshadow="2"
     inkscape:pageopacity="0.0"
     inkscape:pagecheckerboard="0"
     inkscape:deskcolor="#d1d1d1"
     inkscape:document-units="mm"
     inkscape:zoom="3.1536196"
     inkscape:cx="159.49926"
     inkscape:cy="129.5337"
     inkscape:window-width="1920"
     inkscape:window-height="1051"
     inkscape:window-x="-9"
     inkscape:window-y="1341"
     inkscape:window-maximized="1"
     inkscape:current-layer="g20"
     showborder="false" />
  <defs
     id="defs1">
    <marker
       style="overflow:visible"
       id="ArrowWideRounded-8-2"
       refX="-0.21278197"
       refY="-0.00060666021"
       orient="auto-start-reverse"
       inkscape:stockid="Wide, rounded arrow"
       markerWidth="3.2413034"
       markerHeight="2.7611485"
       viewBox="0 0 1 1"
       inkscape:isstock="true"
       inkscape:collect="always"
       preserveAspectRatio="none">
      <path
         style="fill:none;stroke:context-stroke;stroke-width:1;stroke-linecap:round"
         d="M 3,-3 0,0 3,3"
         transform="rotate(180,0.125,0)"
         sodipodi:nodetypes="ccc"
         id="path14-3-7" />
    </marker>
  </defs>
  <g
     inkscape:label="Layer 1"
     inkscape:groupmode="layer"
     id="layer1"
     transform="translate(-19.468316,-26.878182)">
    <g
       id="g43"
       transform="matrix(0.5,0,0,0.5,-80.1473,-41.773)"
       inkscape:export-filename="g43.svg"
       inkscape:export-xdpi="96"
       inkscape:export-ydpi="96">
      <g
         id="g20">
        <rect
           style="fill:#e6e6e6;fill-rule:evenodd;stroke-width:0.264583"
           id="rect374-0"
           width="170.51642"
           height="56.523048"
           x="199.23123"
           y="188.08998"
           ry="0" />
        <path
           style="fill:none;stroke:#000000;stroke-width:0.529167;stroke-linecap:butt;stroke-linejoin:miter;stroke-dasharray:none;stroke-dashoffset:0;stroke-opacity:1"
           d="M 369.74764,188.08998 H 199.23124"
           id="path107-0"
           inkscape:export-filename="path1.png"
           inkscape:export-xdpi="300"
           inkscape:export-ydpi="300"
           sodipodi:nodetypes="cc" />
        <path
           style="fill:none;stroke:#b3b3b3;stroke-width:0.529167;stroke-linecap:butt;stroke-linejoin:miter;stroke-dasharray:none;stroke-opacity:1"
           d="m 276.02592,234.2342 18.77259,-46.14422 25.91827,-37.78739"
           id="path108-6"
           sodipodi:nodetypes="ccc" />
        <path
           style="fill:none;stroke:#000000;stroke-width:0.529167;stroke-linecap:butt;stroke-linejoin:miter;stroke-dasharray:4.23333, 1.05833, 0.529167, 1.05833;stroke-dashoffset:0;stroke-opacity:1"
           d="m 279.55707,210.31114 15.24144,-22.22116"
           id="path111-6"
           sodipodi:nodetypes="cc" />
        <path
           style="fill:none;stroke:#b3b3b3;stroke-width:0.132292;stroke-linecap:butt;stroke-linejoin:miter;stroke-dasharray:none;stroke-opacity:1;marker-end:url(#ArrowWideRounded-8-2)"
           d="m 306.34022,171.26281 1.41743,-2.06653"
           id="path219-8"
           sodipodi:nodetypes="cc" />
        <path
           style="fill:none;stroke:#b3b3b3;stroke-width:0.132292;stroke-linecap:butt;stroke-linejoin:miter;stroke-dasharray:none;stroke-opacity:1;marker-end:url(#ArrowWideRounded-8-2)"
           d="m 284.23274,214.06132 0.94043,-2.31164"
           id="path221-7"
           sodipodi:nodetypes="cc" />
        <circle
           style="fill:#ffffff;fill-rule:evenodd;stroke:#000000;stroke-width:0.264583"
           id="circle147-1"
           cx="-276.02591"
           cy="234.23419"
           r="0.95402402"
           transform="scale(-1,1)" />
        <path
           style="fill:none;stroke:#000000;stroke-width:0.264583px;stroke-linecap:butt;stroke-linejoin:miter;stroke-opacity:1"
           d="m 293.66014,221.3292 0.002,-0.0195"
           id="path153"
           sodipodi:nodetypes="cc" />
        <g
           id="g163"
           transform="translate(-1.6350406,124.22065)">
          <path
             style="fill:#808080;stroke:#000000;stroke-width:0.264583px;stroke-linecap:round;stroke-linejoin:round;stroke-opacity:1;paint-order:stroke fill markers"
             d="m 282.37381,105.57278 -4.71286,4.44076 5.46001,-3.01572 c 0.34334,-0.72433 0.68668,-1.44865 0.68668,-1.44865 z"
             id="path143"
             inkscape:transform-center-x="-3.547525"
             inkscape:transform-center-y="-2.841085"
             sodipodi:nodetypes="ccccc" />
          <path
             style="fill:#f4eed7;stroke:#000000;stroke-width:0.529167;stroke-linecap:butt;stroke-linejoin:miter;stroke-dasharray:none;stroke-opacity:1"
             d="m 282.37381,105.57277 1.43383,-0.0236 -0.68668,1.44865 12.05968,-5.81139 0.21507,-2.236734 -1.73557,-0.59975 0.22165,-2.5492 -2.51622,-0.004 -8.99176,9.775904"
             id="path152"
             sodipodi:nodetypes="ccccccccc" />
          <path
             style="fill:#ffdd55;stroke:#000000;stroke-width:0.529167;stroke-linecap:round;stroke-linejoin:round;stroke-dasharray:none;stroke-opacity:1"
             d="m 371.25019,45.642166 -76.0698,55.544424 0.21527,-2.236894 -1.73556,-0.59975 0.22164,-2.5492 -2.51611,-0.004 75.51757,-55.141086"
             id="path156"
             sodipodi:nodetypes="ccccccc" />
          <path
             style="fill:none;stroke:#000000;stroke-width:0.529167;stroke-linecap:round;stroke-linejoin:round;stroke-dasharray:none;stroke-opacity:1;paint-order:stroke fill markers"
             d="m 282.37381,105.57278 -4.71286,4.44076 5.46001,-3.01572 c 0.34334,-0.72433 0.68668,-1.44865 0.68668,-1.44865 z"
             id="path157"
             inkscape:transform-center-x="-3.547525"
             inkscape:transform-center-y="-2.841085"
             sodipodi:nodetypes="ccccc" />
        </g>
        <g
           id="g1">
          <circle
             style="fill:#ffffff;fill-rule:evenodd;stroke:#000000;stroke-width:0.264583"
             id="circle91-3"
             cx="-276.02591"
             cy="234.23418"
             r="0.95402402"
             transform="scale(-1,1)" />
          <path
             style="fill:none;stroke:#ff6600;stroke-width:0.529167;stroke-linecap:round;stroke-linejoin:miter;stroke-dasharray:none;stroke-opacity:1"
             d="m 318.43463,188.08998 c -16.51959,1.34776 -37.56515,14.49677 -42.4087,29.00441"
             id="path40-7"
             sodipodi:nodetypes="cc" />
          <path
             style="fill:none;stroke:#ff6600;stroke-width:0.529167;stroke-linecap:round;stroke-linejoin:miter;stroke-dasharray:none;stroke-opacity:1"
             d="m 233.61723,188.08998 c 16.51959,1.34776 37.56515,14.49677 42.4087,29.00441"
             id="path140"
             sodipodi:nodetypes="cc" />
        </g>
        <circle
           style="fill:#ffffff;fill-rule:evenodd;stroke:#b3b3b3;stroke-width:0.264583"
           id="circle146-5"
           cx="-279.55707"
           cy="210.31114"
           r="0.95402402"
           transform="scale(-1,1)" />
        <g
           id="g161"
           transform="matrix(0.97148725,0.28832213,-0.23806352,0.95869608,39.077691,-0.91407003)"
           inkscape:transform-center-x="-33.049123"
           inkscape:transform-center-y="-11.776042">
          <g
             id="g14">
            <path
               style="fill:#808080;stroke:none;stroke-width:0.264583px;stroke-linecap:round;stroke-linejoin:round;stroke-opacity:1;paint-order:stroke fill markers"
               d="m 285.21317,132.49641 -4.10049,3.35017 4.45944,-1.91864 c 0.34334,-0.72433 0.68668,-1.44865 0.68668,-1.44865 z"
               id="path11"
               inkscape:transform-center-x="-3.547525"
               inkscape:transform-center-y="-2.841085"
               sodipodi:nodetypes="ccccc" />
            <path
               style="fill:#f4eed7;stroke:#000000;stroke-width:0.529167;stroke-linecap:round;stroke-linejoin:round;stroke-dasharray:1.5875, 1.5875;stroke-dashoffset:0;stroke-opacity:1"
               d="m 284.82497,132.50289 1.43383,-0.0236 -0.68668,1.44865 8.63324,-4.19361 1.77617,-2.77966 -2.79551,1.55027 1.48354,-2.61604 -3.88081,1.73066 -5.96378,4.88321"
               id="path12"
               sodipodi:nodetypes="ccccccccc" />
            <path
               style="fill:#ffdd55;stroke:#000000;stroke-width:0.529167;stroke-linecap:round;stroke-linejoin:round;stroke-dasharray:1.5875, 1.5875;stroke-dashoffset:0;stroke-opacity:1"
               d="m 337.88592,95.529822 c -13.92075,7.924508 -16.11818,16.117278 -43.68056,34.204508 l 1.77617,-2.77966 -2.79551,1.55027 1.48354,-2.61604 -3.88081,1.73066 c 8.94017,-4.91429 29.04969,-21.46436 36.36339,-28.861622"
               id="path13"
               sodipodi:nodetypes="ccccccc" />
            <path
               style="fill:none;stroke:#000000;stroke-width:0.529167;stroke-linecap:round;stroke-linejoin:round;stroke-dasharray:1.5875, 1.5875;stroke-dashoffset:0;stroke-opacity:1;paint-order:stroke fill markers"
               d="m 284.82497,132.50277 -3.71229,3.34381 4.45944,-1.91864 c 0.34334,-0.72433 0.68668,-1.44865 0.68668,-1.44865 z"
               id="path14"
               inkscape:transform-center-x="-3.547525"
               inkscape:transform-center-y="-2.841085"
               sodipodi:nodetypes="ccccc" />
          </g>
        </g>
        <g
           id="g9"
           transform="matrix(-1.9917374,0.63483886,0.63483886,1.9917374,838.87738,-82.872678)"
           inkscape:transform-center-x="3.1445977"
           inkscape:transform-center-y="3.8189724">
          <path
             style="fill:none;stroke:#000000;stroke-width:0.253134;stroke-linecap:round;stroke-linejoin:round;stroke-dasharray:none;stroke-opacity:1"
             d="m 324.15685,21.741767 c 0,0 -1.23581,0.569616 -2.65997,1.078792 -1.42416,0.509175 -2.73078,0.572253 -2.73078,0.572253 l 0.42727,0.808055 c 2.61627,-0.543548 6.01148,-2.237332 6.01148,-2.237332 l -1.85368,5.679821 0.44348,0.160052 0.2965,0.379746"
             id="path4"
             sodipodi:nodetypes="ccc" />
          <path
             id="path5"
             style="fill:none;fill-rule:evenodd;stroke:#000000;stroke-width:0.253134;stroke-linecap:round;stroke-linejoin:round;stroke-dasharray:none"
             d="m 323.67845,26.640555 c -1.48627,-0.563865 -2.39968,-1.434598 -3.27288,-2.762917"
             sodipodi:nodetypes="cc" />
          <path
             id="path6"
             style="fill:#4d4d4d;fill-rule:evenodd;stroke:#000000;stroke-width:0.109361"
             d="m 320.72022,24.26752 c 0.69374,-0.146313 1.41346,0.01385 1.95214,0.450145 0.53868,0.436292 0.84115,1.10402 0.89632,1.889734 -1.27692,-0.16464 -2.3697,-1.074426 -2.84846,-2.339879 z"
             sodipodi:nodetypes="cscc" />
          <ellipse
             style="fill:#e6e6e6;fill-rule:evenodd;stroke-width:0.109361"
             id="ellipse3"
             cx="197.70389"
             cy="254.46797"
             rx="0.14644773"
             ry="0.24055207"
             transform="rotate(-47.763968)" />
          <ellipse
             style="fill:#e6e6e6;fill-rule:evenodd;stroke-width:0.109361"
             id="ellipse4"
             cx="198.04552"
             cy="255.02382"
             rx="0.24195239"
             ry="0.45323375"
             transform="rotate(-47.763968)" />
          <ellipse
             style="fill:#000000;fill-rule:evenodd;stroke-width:0.109361"
             id="ellipse5"
             cx="197.37971"
             cy="255.59773"
             rx="0.27159318"
             ry="0.66260606"
             transform="rotate(-47.763968)" />
          <path
             style="fill:none;stroke:#000000;stroke-width:0.253134;stroke-linecap:round;stroke-linejoin:round;stroke-dasharray:none;stroke-opacity:1"
             d="m 319.08731,25.364982 c 0.3839,-0.690752 0.43443,-1.237271 0.43443,-1.237271"
             id="path7" />
          <path
             style="fill:none;stroke:#000000;stroke-width:0.253134;stroke-linecap:round;stroke-linejoin:round;stroke-dasharray:none;stroke-opacity:1"
             d="m 319.53529,25.250952 c 0.38389,-0.690751 0.43442,-1.237271 0.43442,-1.237271"
             id="path8" />
          <path
             style="fill:none;stroke:#000000;stroke-width:0.253134;stroke-linecap:round;stroke-linejoin:round;stroke-dasharray:none;stroke-opacity:1"
             d="m 319.97756,25.12466 c 0.38389,-0.690752 0.43443,-1.237271 0.43443,-1.237271"
             id="path9" />
          <path
             style="fill:none;stroke:#000000;stroke-width:0.253134;stroke-linecap:round;stroke-linejoin:round;stroke-dasharray:none;stroke-opacity:1"
             d="m 322.29382,27.789512 c 0.65056,-0.448648 1.18967,-0.551596 1.18967,-0.551596"
             id="path10" />
          <path
             style="fill:none;stroke:#000000;stroke-width:0.253134;stroke-linecap:round;stroke-linejoin:round;stroke-dasharray:none;stroke-opacity:1"
             d="m 317.8854,23.035478 1.09434,0.761361"
             id="path15" />
        </g>
        <path
           style="fill:none;stroke:#000000;stroke-width:0.529167;stroke-linecap:butt;stroke-linejoin:miter;stroke-dasharray:2.11667, 1.05833, 0.529167, 1.05833;stroke-dashoffset:0;stroke-opacity:1"
           d="m 242.01203,188.17882 12.23053,6.50089"
           id="path16"
           sodipodi:nodetypes="cc" />
        <circle
           style="fill:#ffffff;fill-rule:evenodd;stroke:#b3b3b3;stroke-width:0.264583"
           id="circle31"
           cx="-254.24255"
           cy="194.6797"
           r="0.95402402"
           transform="scale(-1,1)" />
        <path
           style="fill:none;stroke:#b3b3b3;stroke-width:0.529167;stroke-linecap:butt;stroke-linejoin:miter;stroke-dasharray:none;stroke-opacity:1"
           d="m 276.02592,234.2342 -34.0795,-46.14422 -24.24824,-12.8347"
           id="path31"
           sodipodi:nodetypes="ccc" />
        <path
           style="fill:none;stroke:#b3b3b3;stroke-width:0.132292;stroke-linecap:butt;stroke-linejoin:miter;stroke-dasharray:none;stroke-opacity:1;marker-end:url(#ArrowWideRounded-8-2)"
           d="m 231.96292,182.75587 -3.00554,-1.60123"
           id="path32"
           sodipodi:nodetypes="cc" />
        <path
           style="fill:none;stroke:#b3b3b3;stroke-width:0.132292;stroke-linecap:butt;stroke-linejoin:miter;stroke-dasharray:none;stroke-opacity:1;marker-end:url(#ArrowWideRounded-8-2)"
           d="m 260.49628,213.20681 -2.07568,-2.81052"
           id="path33"
           sodipodi:nodetypes="cc" />
        <text
           xml:space="preserve"
           style="font-size:6.35px;line-height:normal;font-family:HancomEQN;-inkscape-font-specification:HancomEQN;text-decoration-color:#000000;fill:#000000;stroke-width:0.529166;stroke-linecap:round;stroke-linejoin:round;-inkscape-stroke:none;stop-color:#000000"
           x="309.8717"
           y="155.17871"
           id="text33"><tspan
             sodipodi:role="line"
             id="tspan33"
             style="stroke-width:0.529166"
             x="309.8717"
             y="155.17871">1</tspan></text>
        <text
           xml:space="preserve"
           style="font-size:6.35px;line-height:normal;font-family:HancomEQN;-inkscape-font-specification:HancomEQN;text-decoration-color:#000000;fill:#000000;stroke-width:0.529166;stroke-linecap:round;stroke-linejoin:round;-inkscape-stroke:none;stop-color:#000000"
           x="223.97424"
           y="174.351"
           id="text34"><tspan
             sodipodi:role="line"
             id="tspan34"
             style="stroke-width:0.529166"
             x="223.97424"
             y="174.351">2</tspan></text>
        <text
           xml:space="preserve"
           style="font-size:6.35px;line-height:normal;font-family:HancomEQN;-inkscape-font-specification:HancomEQN;text-decoration-color:#000000;fill:#000000;stroke-width:0.529166;stroke-linecap:round;stroke-linejoin:round;-inkscape-stroke:none;stop-color:#000000"
           x="270.61743"
           y="199.99478"
           id="text34-0"><tspan
             sodipodi:role="line"
             id="tspan34-7"
             style="stroke-width:0.529166"
             x="270.61743"
             y="199.99478" /></text>
        <g
           id="g42"
           transform="matrix(2.0887938,-0.08353783,0.08353783,2.0887938,-351.58954,119.23224)"
           inkscape:transform-center-x="-2.265166"
           inkscape:transform-center-y="1.9553395">
          <path
             style="fill:none;stroke:#000000;stroke-width:0.253134;stroke-linecap:round;stroke-linejoin:round;stroke-dasharray:none;stroke-opacity:1"
             d="m 324.15685,21.741767 c 0,0 -1.23581,0.569616 -2.65997,1.078792 -1.42416,0.509175 -2.73078,0.572253 -2.73078,0.572253 l 0.42727,0.808055 c 2.61627,-0.543548 6.01148,-2.237332 6.01148,-2.237332 l -1.85368,5.679821 0.44348,0.160052 0.2965,0.379746"
             id="path34"
             sodipodi:nodetypes="ccc" />
          <path
             id="path35"
             style="fill:none;fill-rule:evenodd;stroke:#000000;stroke-width:0.253134;stroke-linecap:round;stroke-linejoin:round;stroke-dasharray:none"
             d="m 323.67845,26.640555 c -1.48627,-0.563865 -2.39968,-1.434598 -3.27288,-2.762917"
             sodipodi:nodetypes="cc" />
          <path
             id="path36"
             style="fill:#4d4d4d;fill-rule:evenodd;stroke:#000000;stroke-width:0.109361"
             d="m 320.72022,24.26752 c 0.69374,-0.146313 1.41346,0.01385 1.95214,0.450145 0.53868,0.436292 0.84115,1.10402 0.89632,1.889734 -1.27692,-0.16464 -2.3697,-1.074426 -2.84846,-2.339879 z"
             sodipodi:nodetypes="cscc" />
          <ellipse
             style="fill:#e6e6e6;fill-rule:evenodd;stroke-width:0.109361"
             id="ellipse36"
             cx="197.70389"
             cy="254.46797"
             rx="0.14644773"
             ry="0.24055207"
             transform="rotate(-47.763968)" />
          <ellipse
             style="fill:#e6e6e6;fill-rule:evenodd;stroke-width:0.109361"
             id="ellipse37"
             cx="198.04552"
             cy="255.02382"
             rx="0.24195239"
             ry="0.45323375"
             transform="rotate(-47.763968)" />
          <ellipse
             style="fill:#000000;fill-rule:evenodd;stroke-width:0.109361"
             id="ellipse38"
             cx="197.37971"
             cy="255.59773"
             rx="0.27159318"
             ry="0.66260606"
             transform="rotate(-47.763968)" />
          <path
             style="fill:none;stroke:#000000;stroke-width:0.253134;stroke-linecap:round;stroke-linejoin:round;stroke-dasharray:none;stroke-opacity:1"
             d="m 319.08731,25.364982 c 0.3839,-0.690752 0.43443,-1.237271 0.43443,-1.237271"
             id="path38" />
          <path
             style="fill:none;stroke:#000000;stroke-width:0.253134;stroke-linecap:round;stroke-linejoin:round;stroke-dasharray:none;stroke-opacity:1"
             d="m 319.53529,25.250952 c 0.38389,-0.690751 0.43442,-1.237271 0.43442,-1.237271"
             id="path39" />
          <path
             style="fill:none;stroke:#000000;stroke-width:0.253134;stroke-linecap:round;stroke-linejoin:round;stroke-dasharray:none;stroke-opacity:1"
             d="m 319.97756,25.12466 c 0.38389,-0.690752 0.43443,-1.237271 0.43443,-1.237271"
             id="path40" />
          <path
             style="fill:none;stroke:#000000;stroke-width:0.253134;stroke-linecap:round;stroke-linejoin:round;stroke-dasharray:none;stroke-opacity:1"
             d="m 322.29382,27.789512 c 0.65056,-0.448648 1.18967,-0.551596 1.18967,-0.551596"
             id="path41" />
          <path
             style="fill:none;stroke:#000000;stroke-width:0.253134;stroke-linecap:round;stroke-linejoin:round;stroke-dasharray:none;stroke-opacity:1"
             d="m 317.8854,23.035478 1.09434,0.761361"
             id="path42" />
        </g>
        <rect
           style="fill:#ffffff;fill-rule:evenodd;stroke-width:0.529167"
           id="rect19"
           width="7.1012969"
           height="0.66718251"
           x="251.69711"
           y="187.73743"
           ry="0" />
        <g
           transform="matrix(0.705556,0,0,0.705556,253.81458,185.81474)"
           ns1:version="1.10.1"
           ns1:texconverter="pdflatex"
           ns1:pdfconverter="inkscape"
           ns1:text="$2'$"
           ns1:preamble="C:\Users\user\Documents\aaa.tex"
           ns1:scale="1.0000000283464388"
           ns1:alignment="middle center"
           ns1:stroke-to-path="0"
           id="g9075"
           ns1:jacobian_sqrt="0.705556">
          <defs
             id="id-12a64552-7d48-447b-8709-dcf3f572529b">
            <g
               id="id-6bfb075b-0fb8-47f5-8093-7c650933d21a">
              <g
                 id="id-2f316041-f3e6-47b0-b139-cb83b6c9d6dc">
                <path
                   d="m 1.265625,-0.765625 1.0625,-1.03125 c 1.546875,-1.375 2.140625,-1.90625 2.140625,-2.90625 0,-1.140625 -0.890625,-1.9375 -2.109375,-1.9375 -1.125,0 -1.859375,0.921875 -1.859375,1.8125 0,0.546875 0.5,0.546875 0.53125,0.546875 0.171875,0 0.515625,-0.109375 0.515625,-0.53125 0,-0.25 -0.1875,-0.515625 -0.53125,-0.515625 -0.078125,0 -0.09375,0 -0.125,0.015625 0.21875,-0.65625 0.765625,-1.015625 1.34375,-1.015625 0.90625,0 1.328125,0.8125 1.328125,1.625 C 3.5625,-3.90625 3.078125,-3.125 2.515625,-2.5 l -1.90625,2.125 C 0.5,-0.265625 0.5,-0.234375 0.5,0 H 4.203125 L 4.46875,-1.734375 H 4.234375 C 4.171875,-1.4375 4.109375,-1 4,-0.84375 3.9375,-0.765625 3.28125,-0.765625 3.0625,-0.765625 Z m 0,0"
                   id="id-05679472-eb16-42a2-8d59-633cc033eb8e" />
              </g>
              <g
                 id="id-37471603-8386-4583-b356-7f7a119582cf">
                <path
                   d="m 2.015625,-3.296875 c 0.0625,-0.109375 0.0625,-0.171875 0.0625,-0.21875 0,-0.21875 -0.1875,-0.375 -0.40625,-0.375 -0.265625,0 -0.34375,0.21875 -0.375,0.328125 L 0.375,-0.546875 c -0.015625,0.015625 -0.046875,0.09375 -0.046875,0.109375 0,0.078125 0.21875,0.15625 0.28125,0.15625 0.046875,0 0.046875,-0.015625 0.09375,-0.125 z m 0,0"
                   id="id-4dbe14e6-751b-4e3e-a1d4-7d49b0925138" />
              </g>
            </g>
          </defs>
          <g
             fill="#000000"
             fill-opacity="1"
             id="id-a1d1f264-fe08-4662-b160-e388d6a28e3a"
             transform="translate(-149.212,-127.259)">
            <g
               transform="translate(148.712,134.765)"
               id="g2175">
              <path
                 d="m 1.265625,-0.765625 1.0625,-1.03125 c 1.546875,-1.375 2.140625,-1.90625 2.140625,-2.90625 0,-1.140625 -0.890625,-1.9375 -2.109375,-1.9375 -1.125,0 -1.859375,0.921875 -1.859375,1.8125 0,0.546875 0.5,0.546875 0.53125,0.546875 0.171875,0 0.515625,-0.109375 0.515625,-0.53125 0,-0.25 -0.1875,-0.515625 -0.53125,-0.515625 -0.078125,0 -0.09375,0 -0.125,0.015625 0.21875,-0.65625 0.765625,-1.015625 1.34375,-1.015625 0.90625,0 1.328125,0.8125 1.328125,1.625 C 3.5625,-3.90625 3.078125,-3.125 2.515625,-2.5 l -1.90625,2.125 C 0.5,-0.265625 0.5,-0.234375 0.5,0 H 4.203125 L 4.46875,-1.734375 H 4.234375 C 4.171875,-1.4375 4.109375,-1 4,-0.84375 3.9375,-0.765625 3.28125,-0.765625 3.0625,-0.765625 Z m 0,0"
                 id="id-ef94fd19-0841-4cba-b1d3-f42d23ac65b3" />
            </g>
          </g>
          <g
             fill="#000000"
             fill-opacity="1"
             id="id-fc745772-bd74-4825-b23b-59a58b7c248d"
             transform="translate(-149.212,-127.259)">
            <g
               transform="translate(153.694,131.15)"
               id="g191">
              <path
                 d="m 2.015625,-3.296875 c 0.0625,-0.109375 0.0625,-0.171875 0.0625,-0.21875 0,-0.21875 -0.1875,-0.375 -0.40625,-0.375 -0.265625,0 -0.34375,0.21875 -0.375,0.328125 L 0.375,-0.546875 c -0.015625,0.015625 -0.046875,0.09375 -0.046875,0.109375 0,0.078125 0.21875,0.15625 0.28125,0.15625 0.046875,0 0.046875,-0.015625 0.09375,-0.125 z m 0,0"
                 id="id-251f0a98-b3be-4379-8a1d-ffb21e73b005" />
            </g>
          </g>
        </g>
        <g
           transform="matrix(0.705556,0,0,0.705556,275.00369,205.52692)"
           ns1:version="1.10.1"
           ns1:texconverter="pdflatex"
           ns1:pdfconverter="inkscape"
           ns1:text="$1'$"
           ns1:preamble="C:\Users\user\Documents\aaa.tex"
           ns1:scale="1.0000000283464388"
           ns1:alignment="middle center"
           ns1:stroke-to-path="0"
           id="g19"
           ns1:jacobian_sqrt="0.705556">
          <defs
             id="id-1fb5c050-545a-4ff9-895a-21341ea22532">
            <g
               id="id-941ec0ae-2af3-449e-a970-c0ab60b1aaf0">
              <g
                 id="id-90459855-77c5-4ecb-a3f8-4a577fd645cf">
                <path
                   d="m 2.9375,-6.375 c 0,-0.25 0,-0.265625 -0.234375,-0.265625 C 2.078125,-6 1.203125,-6 0.890625,-6 v 0.3125 c 0.203125,0 0.78125,0 1.296875,-0.265625 v 5.171875 c 0,0.359375 -0.03125,0.46875 -0.921875,0.46875 h -0.3125 V 0 c 0.34375,-0.03125 1.203125,-0.03125 1.609375,-0.03125 0.390625,0 1.265625,0 1.609375,0.03125 v -0.3125 h -0.3125 c -0.90625,0 -0.921875,-0.109375 -0.921875,-0.46875 z m 0,0"
                   id="id-50f60330-d56d-4da0-9fd0-5494e0c08f7b" />
              </g>
              <g
                 id="id-39b8ae3f-f47e-49af-b033-d6c38fdaa61b">
                <path
                   d="m 2.015625,-3.296875 c 0.0625,-0.109375 0.0625,-0.171875 0.0625,-0.21875 0,-0.21875 -0.1875,-0.375 -0.40625,-0.375 -0.265625,0 -0.34375,0.21875 -0.375,0.328125 L 0.375,-0.546875 c -0.015625,0.015625 -0.046875,0.09375 -0.046875,0.109375 0,0.078125 0.21875,0.15625 0.28125,0.15625 0.046875,0 0.046875,-0.015625 0.09375,-0.125 z m 0,0"
                   id="id-585c008a-68dd-4a23-adac-6101e4fde1ad" />
              </g>
            </g>
          </defs>
          <g
             fill="#000000"
             fill-opacity="1"
             id="id-7ccc544a-3d19-4631-9942-cff4fa7be66b"
             transform="translate(-149.603,-127.259)">
            <g
               transform="translate(148.712,134.765)"
               id="g3040">
              <path
                 d="m 2.9375,-6.375 c 0,-0.25 0,-0.265625 -0.234375,-0.265625 C 2.078125,-6 1.203125,-6 0.890625,-6 v 0.3125 c 0.203125,0 0.78125,0 1.296875,-0.265625 v 5.171875 c 0,0.359375 -0.03125,0.46875 -0.921875,0.46875 h -0.3125 V 0 c 0.34375,-0.03125 1.203125,-0.03125 1.609375,-0.03125 0.390625,0 1.265625,0 1.609375,0.03125 v -0.3125 h -0.3125 c -0.90625,0 -0.921875,-0.109375 -0.921875,-0.46875 z m 0,0"
                 id="id-f1b92b7f-36d8-49b7-9a75-ed9aa3e178e2" />
            </g>
          </g>
          <g
             fill="#000000"
             fill-opacity="1"
             id="id-aeb552d8-68c8-4f31-8215-716d291bf637"
             transform="translate(-149.603,-127.259)">
            <g
               transform="translate(153.694,131.15)"
               id="g3298">
              <path
                 d="m 2.015625,-3.296875 c 0.0625,-0.109375 0.0625,-0.171875 0.0625,-0.21875 0,-0.21875 -0.1875,-0.375 -0.40625,-0.375 -0.265625,0 -0.34375,0.21875 -0.375,0.328125 L 0.375,-0.546875 c -0.015625,0.015625 -0.046875,0.09375 -0.046875,0.109375 0,0.078125 0.21875,0.15625 0.28125,0.15625 0.046875,0 0.046875,-0.015625 0.09375,-0.125 z m 0,0"
                 id="id-b8668556-4254-476c-aefa-0f1c976c23e7" />
            </g>
          </g>
        </g>
        <g
           id="g27"
           transform="translate(1e-5,10.58333)">
          <path
             style="fill:#ffdd55;fill-opacity:1;stroke:#000000;stroke-width:0.529167;stroke-linecap:round;stroke-linejoin:miter;stroke-dasharray:1.5875, 1.5875;stroke-dashoffset:0;stroke-opacity:1"
             d="m 331.42878,177.50623 c -23.74958,0.20896 -56.41347,-0.62557 -63.01811,1.23556 l 2.21431,-0.11975 -2.19155,0.61569 2.66943,0.15186 -2.12163,0.28204 c 12.20349,-1.93521 51.82392,-1.36015 75.63898,-2.16503"
             id="path20"
             sodipodi:nodetypes="ccccccc" />
          <path
             style="fill:#f4eed7;fill-opacity:1;stroke:#000000;stroke-width:0.529167px;stroke-linecap:round;stroke-linejoin:round;stroke-dasharray:1.5875, 1.5875;stroke-dashoffset:0;stroke-opacity:1"
             d="m 260.89679,180.51521 2.20279,-0.23934 -1.23909,0.74399 c 4.76095,-0.67551 1.39394,-0.52121 7.60694,-1.4192 l 1.64814,-0.21272 -2.68214,-0.15021 2.19155,-0.61569 -2.21431,0.11975 c -5.16521,1.04843 -5.98151,1.20712 -7.51388,1.77342 z"
             id="path21"
             sodipodi:nodetypes="ccccccccc" />
          <path
             style="fill:#808080;fill-opacity:1;stroke:none;stroke-width:0.529167px;stroke-linecap:butt;stroke-linejoin:round;stroke-opacity:1"
             d="m 260.89679,180.51521 -6.65424,3.58117 7.61794,-3.07652 0.61955,-0.372 z"
             id="path22"
             sodipodi:nodetypes="ccccc" />
          <path
             style="fill:none;fill-opacity:1;stroke:#000000;stroke-width:0.529167px;stroke-linecap:butt;stroke-linejoin:round;stroke-opacity:1"
             d="m 260.89679,180.51521 c -3.43262,1.28481 -4.66162,2.40436 -6.65424,3.58117 2.28954,-0.98269 4.04721,-1.8742 7.61794,-3.07652 l 0.61955,-0.372 z"
             id="path27"
             inkscape:transform-center-x="-2.4164325"
             inkscape:transform-center-y="-0.429105"
             sodipodi:nodetypes="ccccc" />
        </g>
        <g
           id="g25"
           transform="matrix(0.07537728,0,0,0.07537728,313.82405,173.91227)">
          <circle
             style="fill:#ffffff;fill-rule:evenodd;stroke:#000000;stroke-width:0.264583"
             id="circle23"
             cx="-276.02591"
             cy="234.23418"
             r="0.95402402"
             transform="scale(-1,1)" />
          <path
             style="fill:none;stroke:#ff6600;stroke-width:0.529167;stroke-linecap:round;stroke-linejoin:miter;stroke-dasharray:none;stroke-opacity:1"
             d="m 318.43463,188.08998 c -16.51959,1.34776 -37.56515,14.49677 -42.4087,29.00441"
             id="path24"
             sodipodi:nodetypes="cc" />
          <path
             style="fill:none;stroke:#ff6600;stroke-width:0.529167;stroke-linecap:round;stroke-linejoin:miter;stroke-dasharray:none;stroke-opacity:1"
             d="m 233.61723,188.08998 c 16.51959,1.34776 37.56515,14.49677 42.4087,29.00441"
             id="path25"
             sodipodi:nodetypes="cc" />
        </g>
      </g>
    </g>
  </g>
</svg>
